# File created by Blade
# Date/Time:  Wed Jan 21 19:09:01 2015
#---------------------------------------------------------
:version 1.10
:name HOM
:units
  mass 1.0
  length 1.000000
  angle deg
:documentation
     Acclaim Skeleton File
:root
   axis xyz
   order TX TY TZ RX RY RZ
   position 0.000000 0.000000 0.000000
   orientation 0 0 0
:bonedata
   begin
      id 1
      name RightUpLeg_dum
      direction -1.000000 0.000000 0.000000
      length 3.693983
      axis 0.0 0.0 0.0 xyz
   end
   begin
      id 2
      name LeftUpLeg_dum
      direction 1.000000 0.000000 0.000000
      length 3.693983
      axis 0.0 0.0 0.0 xyz
   end
   begin
      id 3
      name Spine_dum
      direction 0.000000 1.000000 0.000000
      length 2.392956
      axis 0.0 0.0 0.0 xyz
   end
   begin
      id 4
      name RightUpLeg
      direction 0.000000 -1.000000 0.000000
      length 15.795667
      axis 0.0 0.0 0.0 xyz
      dof rx ry rz
   end
   begin
      id 5
      name RightLeg
      direction 0.000000 -1.000000 0.000000
      length 14.766989
      axis 0.0 0.0 0.0 xyz
      dof rx ry rz
   end
   begin
      id 6
      name RightFoot
      direction 0.000000 -0.258819 0.965926
      length 4.962790
      axis 15.0 0.0 0.0 xyz
      dof rx ry rz
   end
   begin
      id 7
      name RightToeBase
      direction 0.000000 0.000000 1.000000
      length 2.952750
      axis 0.0 0.0 0.0 xyz
      dof rx ry rz
   end
   begin
      id 8
      name LeftUpLeg
      direction 0.000000 -1.000000 0.000000
      length 15.795667
      axis 0.0 0.0 0.0 xyz
      dof rx ry rz
   end
   begin
      id 9
      name LeftLeg
      direction 0.000000 -1.000000 0.000000
      length 14.766989
      axis 0.0 0.0 0.0 xyz
      dof rx ry rz
   end
   begin
      id 10
      name LeftFoot
      direction 0.000000 -0.258819 0.965926
      length 4.962790
      axis 15.0 0.0 0.0 xyz
      dof rx ry rz
   end
   begin
      id 11
      name LeftToeBase
      direction 0.000000 0.000000 1.000000
      length 2.952750
      axis 0.0 0.0 0.0 xyz
      dof rx ry rz
   end
   begin
      id 12
      name Spine
      direction 0.000000 1.000000 0.000000
      length 0.000000
      axis 0.0 0.0 0.0 xyz
      dof rx ry rz
   end
   begin
      id 13
      name Spine_dum1
      direction 0.000000 1.000000 0.000000
      length 13.207411
      axis 0.0 0.0 0.0 xyz
   end
   begin
      id 14
      name Spine_dum2
      direction 0.000000 1.000000 0.000000
      length 13.207411
      axis 0.0 0.0 0.0 xyz
   end
   begin
      id 15
      name Spine_dum3
      direction 0.000000 1.000000 0.000000
      length 19.250100
      axis 0.0 0.0 0.0 xyz
   end
   begin
      id 16
      name RightShoulder
      direction -1.000000 0.000000 0.000000
      length 8.140465
      axis 0.0 0.0 90.0 xyz
      dof rx ry rz
   end
   begin
      id 17
      name RightArm
      direction -1.000000 0.000000 0.000000
      length 10.649840
      axis 0.0 0.0 90.0 xyz
      dof rx ry rz
   end
   begin
      id 18
      name RightForeArm
      direction -1.000000 0.000000 0.000000
      length 8.304624
      axis 0.0 0.0 90.0 xyz
      dof ry rz rx
   end
   begin
      id 19
      name RightHand
      direction -1.000000 0.000000 0.000000
      length 0.000000
      axis 0.0 0.0 90.0 xyz
      dof rx ry rz
   end
   begin
      id 20
      name RightHand_dum1
      direction -1.000000 0.000000 0.000000
      length 3.937000
      axis 0.0 0.0 90.0 xyz
   end
   begin
      id 21
      name RightHand_dum2
      direction 0.000000 0.000000 0.000000
      length 0.000000
      axis 0.0 0.0 90.0 xyz
   end
   begin
      id 22
      name RightHandThumb1
      direction 0.000000 0.000000 1.000000
      length 3.937000
      axis 0.0 0.0 90.0 xyz
      dof rx rz ry
   end
   begin
      id 23
      name LeftShoulder
      direction 1.000000 0.000000 0.000000
      length 8.140465
      axis 0.0 0.0 -90.0 xyz
      dof rx ry rz
   end
   begin
      id 24
      name LeftArm
      direction 1.000000 0.000000 0.000000
      length 10.649840
      axis 0.0 0.0 -90.0 xyz
      dof rx ry rz
   end
   begin
      id 25
      name LeftForeArm
      direction 1.000000 0.000000 0.000000
      length 8.304624
      axis 0.0 0.0 -90.0 xyz
      dof ry rz rx
   end
   begin
      id 26
      name LeftHand
      direction 1.000000 0.000000 0.000000
      length 0.000000
      axis 0.0 0.0 -90.0 xyz
      dof rx ry rz
   end
   begin
      id 27
      name LeftHand_dum1
      direction 1.000000 0.000000 0.000000
      length 3.937000
      axis 0.0 0.0 -90.0 xyz
   end
   begin
      id 28
      name LeftHand_dum2
      direction 0.000000 0.000000 0.000000
      length 0.000000
      axis 0.0 0.0 -90.0 xyz
   end
   begin
      id 29
      name LeftHandThumb1
      direction 0.000000 0.000000 1.000000
      length 3.937000
      axis 0.0 0.0 -90.0 xyz
      dof rx rz ry
   end
   begin
      id 30
      name Head
      direction 0.000000 1.000000 0.000000
      length 4.527550
      axis 0.0 0.0 0.0 xyz
      dof rx ry rz
   end
:hierarchy
   begin
      root RightUpLeg_dum LeftUpLeg_dum Spine_dum
      RightUpLeg_dum RightUpLeg
      LeftUpLeg_dum LeftUpLeg
      Spine_dum Spine
      RightUpLeg RightLeg
      RightLeg RightFoot
      RightFoot RightToeBase
      LeftUpLeg LeftLeg
      LeftLeg LeftFoot
      LeftFoot LeftToeBase
      Spine Spine_dum1 Spine_dum2 Spine_dum3
      Spine_dum1 RightShoulder
      Spine_dum2 LeftShoulder
      Spine_dum3 Head
      RightShoulder RightArm
      RightArm RightForeArm
      RightForeArm RightHand
      RightHand RightHand_dum1 RightHand_dum2
      RightHand_dum2 RightHandThumb1
      LeftShoulder LeftArm
      LeftArm LeftForeArm
      LeftForeArm LeftHand
      LeftHand LeftHand_dum1 LeftHand_dum2
      LeftHand_dum2 LeftHandThumb1
   end

# File created by Blade
# Date/Time:  Wed Jan 21 19:08:52 2015
# Frame Rate: 120.000 fps
#------------------------------------------------------
:FULLY-SPECIFIED
:DEGREES
1577
root -2.077918 31.829219 -7.036872 47.291839 -13.366953 9.122692
RightUpLeg -36.339124 -0.101205 8.084359
RightLeg -7.721606 -0.000000 0.000000
RightFoot -10.536608 10.692066 23.834950
RightToeBase 12.863245 -0.000000 -0.000000
LeftUpLeg -49.800489 -12.593307 -10.285330
LeftLeg 4.534364 -0.000000 -0.000000
LeftFoot -10.892890 2.852754 -7.872192
LeftToeBase 11.895971 -0.000000 -0.000000
Spine -46.588942 -4.517497 -28.255887
RightShoulder -11.204252 19.318841 -48.945843
RightArm 5.520507 -22.306413 48.337333
RightForeArm 20.023255 -0.000000 3.638076
RightHand 12.148388 -0.000000 7.018483
RightHandThumb1 -24.326973 -0.000000 -32.862282
LeftShoulder -12.547084 11.443281 13.983490
LeftArm 9.067202 -2.578888 -79.774535
LeftForeArm 15.449863 -0.000000 18.512504
LeftHand -24.161666 0.000000 11.395757
LeftHandThumb1 -26.253704 0.000000 33.147579
Head 3.649156 8.292678 -12.936044
1578
root -2.118237 31.823362 -7.033791 47.155871 -13.767851 9.175749
RightUpLeg -36.151856 0.045327 7.900019
RightLeg -7.815202 -0.000000 0.000000
RightFoot -10.387031 10.825241 24.031290
RightToeBase 12.928305 -0.000000 -0.000000
LeftUpLeg -49.490332 -12.613410 -10.207947
LeftLeg 4.033355 -0.000000 -0.000000
LeftFoot -10.890474 3.222652 -8.041369
LeftToeBase 11.964619 -0.000000 -0.000000
Spine -46.537749 -4.699948 -28.428530
RightShoulder -11.158280 19.196974 -49.058885
RightArm 5.863849 -22.318001 48.031272
RightForeArm 19.890646 -0.000000 3.549326
RightHand 12.268231 -0.000000 6.956601
RightHandThumb1 -24.326973 -0.000000 -32.862282
LeftShoulder -12.567307 11.469584 13.895302
LeftArm 9.131304 -2.566848 -79.551559
LeftForeArm 15.346614 -0.000000 18.228115
LeftHand -24.205360 -0.000000 11.363509
LeftHandThumb1 -26.253704 0.000000 33.147579
Head 3.466708 8.611673 -13.055123
1579
root -2.154041 31.818427 -7.041158 47.141666 -14.151402 9.239831
RightUpLeg -36.134957 0.186553 7.720256
RightLeg -7.853642 -0.000000 0.000000
RightFoot -10.269472 10.944608 24.092243
RightToeBase 12.852943 -0.000000 -0.000000
LeftUpLeg -49.368273 -12.656601 -10.115552
LeftLeg 3.629838 -0.000000 -0.000000
LeftFoot -10.866057 3.539361 -8.195999
LeftToeBase 11.986020 -0.000000 -0.000000
Spine -46.570374 -4.967907 -28.557029
RightShoulder -11.097496 19.440910 -49.231276
RightArm 5.901174 -22.640645 47.754375
RightForeArm 19.870589 -0.000000 3.517029
RightHand 12.256917 0.000000 6.981116
RightHandThumb1 -24.326973 -0.000000 -32.862282
LeftShoulder -12.571631 11.445770 13.777831
LeftArm 9.129514 -2.729737 -79.338496
LeftForeArm 15.505762 0.000000 17.979990
LeftHand -24.183267 0.000000 11.336360
LeftHandThumb1 -26.253704 0.000000 33.147579
Head 3.262186 8.952433 -13.213196
1580
root -2.189451 31.812920 -7.043823 47.082840 -14.521257 9.316435
RightUpLeg -36.067640 0.278941 7.564449
RightLeg -7.895588 -0.000000 0.000000
RightFoot -10.191438 11.097323 24.217129
RightToeBase 12.914343 -0.000000 -0.000000
LeftUpLeg -49.201116 -12.657163 -10.084627
LeftLeg 3.261118 -0.000000 -0.000000
LeftFoot -10.820991 3.781675 -8.290009
LeftToeBase 11.946284 -0.000000 -0.000000
Spine -46.580865 -5.234438 -28.669159
RightShoulder -11.016457 19.462960 -49.366802
RightArm 6.130616 -22.594844 47.443984
RightForeArm 19.625299 -0.000000 3.424422
RightHand 12.273459 -0.000000 6.980294
RightHandThumb1 -24.326973 -0.000000 -32.862282
LeftShoulder -12.603833 11.475420 13.619271
LeftArm 9.213234 -2.877848 -79.118179
LeftForeArm 15.413742 -0.000000 17.682591
LeftHand -24.159921 -0.000000 11.407406
LeftHandThumb1 -26.253704 0.000000 33.147579
Head 3.081646 9.294397 -13.425506
1581
root -2.229540 31.807778 -7.049134 47.037847 -14.878208 9.378439
RightUpLeg -36.016959 0.345400 7.456326
RightLeg -7.926769 -0.000000 0.000000
RightFoot -10.066315 11.351063 24.490187
RightToeBase 13.109137 -0.000000 -0.000000
LeftUpLeg -49.050309 -12.721559 -9.959010
LeftLeg 2.867646 -0.000000 -0.000000
LeftFoot -10.802261 4.133431 -8.423508
LeftToeBase 11.955947 -0.000000 -0.000000
Spine -46.580950 -5.488624 -28.813772
RightShoulder -10.976848 19.559604 -49.538690
RightArm 6.235459 -22.719789 47.165350
RightForeArm 19.557858 -0.000000 3.360727
RightHand 12.319441 -0.000000 7.057807
RightHandThumb1 -24.326973 -0.000000 -32.862282
LeftShoulder -12.599974 11.474756 13.488713
LeftArm 9.269599 -2.890598 -78.862975
LeftForeArm 15.287504 0.000000 17.433136
LeftHand -24.183775 -0.000000 11.729757
LeftHandThumb1 -26.253704 0.000000 33.147579
Head 2.889924 9.575896 -13.588925
1582
root -2.268908 31.803565 -7.057907 46.980867 -15.204293 9.446134
RightUpLeg -35.968542 0.430786 7.341797
RightLeg -7.946475 -0.000000 0.000000
RightFoot -9.981787 11.503234 24.647585
RightToeBase 13.184273 -0.000000 -0.000000
LeftUpLeg -48.941898 -12.732103 -9.896784
LeftLeg 2.605874 -0.000000 -0.000000
LeftFoot -10.814871 4.317676 -8.587261
LeftToeBase 11.996686 -0.000000 -0.000000
Spine -46.558731 -5.781497 -28.892590
RightShoulder -10.981544 19.721384 -49.724003
RightArm 6.414145 -22.850798 46.865311
RightForeArm 19.335371 -0.000000 3.298175
RightHand 12.342825 -0.000000 6.899935
RightHandThumb1 -24.326973 -0.000000 -32.862282
LeftShoulder -12.646159 11.424737 13.305542
LeftArm 9.305486 -2.945559 -78.575218
LeftForeArm 15.202491 0.000000 17.180165
LeftHand -24.216834 -0.000000 11.685642
LeftHandThumb1 -26.253704 0.000000 33.147579
Head 2.703065 9.928955 -13.846359
1583
root -2.306289 31.799212 -7.068161 46.942769 -15.524858 9.521604
RightUpLeg -35.960353 0.456175 7.263924
RightLeg -7.933972 -0.000000 0.000000
RightFoot -9.882862 11.739954 24.744516
RightToeBase 13.225172 -0.000000 -0.000000
LeftUpLeg -48.893532 -12.722396 -9.875179
LeftLeg 2.435227 -0.000000 -0.000000
LeftFoot -10.840152 4.510379 -8.684980
LeftToeBase 12.029843 -0.000000 -0.000000
Spine -46.537326 -6.049091 -29.023650
RightShoulder -10.967047 19.903787 -49.943473
RightArm 6.448400 -23.028377 46.593099
RightForeArm 19.219131 -0.000000 3.188400
RightHand 12.467016 -0.000000 6.775896
RightHandThumb1 -24.326973 -0.000000 -32.862282
LeftShoulder -12.605287 11.370743 13.126641
LeftArm 9.319378 -3.148520 -78.326762
LeftForeArm 15.233262 -0.000000 16.988355
LeftHand -24.114019 -0.000000 11.518864
LeftHandThumb1 -26.253704 0.000000 33.147579
Head 2.504200 10.186136 -14.078271
1584
root -2.344833 31.795387 -7.077869 46.901009 -15.820185 9.591481
RightUpLeg -35.936288 0.525044 7.168749
RightLeg -7.947248 -0.000000 0.000000
RightFoot -9.790720 11.861874 24.755726
RightToeBase 13.263535 -0.000000 -0.000000
LeftUpLeg -48.855942 -12.766077 -9.793811
LeftLeg 2.280659 -0.000000 -0.000000
LeftFoot -10.888253 4.780999 -8.821426
LeftToeBase 12.050969 -0.000000 -0.000000
Spine -46.506429 -6.332530 -29.120608
RightShoulder -10.951922 19.925902 -50.123819
RightArm 6.626677 -23.071307 46.249153
RightForeArm 19.199812 -0.000000 3.118128
RightHand 12.423819 -0.000000 7.140095
RightHandThumb1 -24.326973 -0.000000 -32.862282
LeftShoulder -12.618396 11.298300 12.927791
LeftArm 9.378808 -3.187656 -78.040228
LeftForeArm 15.221329 -0.000000 16.724264
LeftHand -24.060420 -0.000000 11.348199
LeftHandThumb1 -26.253704 0.000000 33.147579
Head 2.275247 10.478845 -14.357430
1585
root -2.383837 31.792100 -7.088882 46.847760 -16.101144 9.676037
RightUpLeg -35.916386 0.592363 7.068565
RightLeg -7.947110 -0.000000 0.000000
RightFoot -9.716520 11.951437 24.745211
RightToeBase 13.308121 -0.000000 -0.000000
LeftUpLeg -48.813456 -12.785467 -9.762816
LeftLeg 2.149441 -0.000000 -0.000000
LeftFoot -10.908221 5.018367 -8.897320
LeftToeBase 12.078401 -0.000000 -0.000000
Spine -46.450025 -6.611931 -29.254794
RightShoulder -10.961961 20.158431 -50.339158
RightArm 6.537357 -23.145866 45.988121
RightForeArm 18.991600 -0.000000 3.111618
RightHand 12.305375 -0.000000 7.109438
RightHandThumb1 -24.326973 -0.000000 -32.862282
LeftShoulder -12.604694 11.267192 12.726673
LeftArm 9.509888 -3.263504 -77.768126
LeftForeArm 15.080480 -0.000000 16.465767
LeftHand -24.089619 -0.000000 11.560496
LeftHandThumb1 -26.253704 0.000000 33.147579
Head 2.071233 10.725613 -14.603324
1586
root -2.422899 31.789173 -7.103025 46.827430 -16.356867 9.740627
RightUpLeg -36.001123 0.490923 7.112115
RightLeg -7.799932 -0.000000 0.000000
RightFoot -9.586121 12.339635 24.727619
RightToeBase 13.367694 -0.000000 -0.000000
LeftUpLeg -48.826571 -12.675285 -9.837334
LeftLeg 2.118335 -0.000000 -0.000000
LeftFoot -10.948908 5.014379 -8.929167
LeftToeBase 12.086643 -0.000000 -0.000000
Spine -46.409412 -6.916875 -29.335631
RightShoulder -10.954897 20.244317 -50.530069
RightArm 6.569132 -23.018075 45.673491
RightForeArm 18.639205 0.000000 3.102077
RightHand 12.306395 -0.000000 7.072309
RightHandThumb1 -24.326973 -0.000000 -32.862282
LeftShoulder -12.626973 11.185658 12.508673
LeftArm 9.600773 -3.423796 -77.496627
LeftForeArm 15.088032 -0.000000 16.250060
LeftHand -24.177785 -0.000000 11.703716
LeftHandThumb1 -26.253704 0.000000 33.147579
Head 1.829672 10.953860 -14.885476
1587
root -2.466075 31.785750 -7.116419 46.777418 -16.582655 9.809631
RightUpLeg -36.096508 0.324907 7.230081
RightLeg -7.563604 -0.000000 0.000000
RightFoot -9.494214 12.761774 24.675589
RightToeBase 13.373953 -0.000000 -0.000000
LeftUpLeg -48.821525 -12.696165 -9.782662
LeftLeg 2.064670 -0.000000 -0.000000
LeftFoot -10.966750 5.279048 -8.805445
LeftToeBase 11.974660 -0.000000 -0.000000
Spine -46.328149 -7.206943 -29.451972
RightShoulder -10.995749 20.334670 -50.744121
RightArm 6.590086 -22.995002 45.354800
RightForeArm 18.466163 -0.000000 3.062483
RightHand 12.359269 0.000000 7.274117
RightHandThumb1 -24.326973 -0.000000 -32.862282
LeftShoulder -12.573277 11.093200 12.333124
LeftArm 9.671826 -3.511009 -77.241840
LeftForeArm 15.041177 0.000000 16.051231
LeftHand -24.308525 0.000000 11.863078
LeftHandThumb1 -26.253704 0.000000 33.147579
Head 1.608033 11.168639 -15.124360
